<?xml version="1.0" encoding="UTF-8"?>
<svg width="134px" height="24px" viewBox="0 0 134 24" version="1.1" xmlns="http://www.w3.org/2000/svg" xmlns:xlink="http://www.w3.org/1999/xlink">
    <!-- Generator: Sketch 53 (72520) - https://sketchapp.com -->
    <title>logotype-white</title>
    <desc>Created with Sketch.</desc>
    <g id="logotype-white" stroke="none" stroke-width="1" fill="none" fill-rule="evenodd">
        <path d="M30.9573101,7.62044 L30.9573101,20.67404 L39.0635125,20.67404 L39.0635125,23.42944 L27.9849827,23.42944 L27.9849827,7.62044 L30.9573101,7.62044 Z M42.8918845,10.3305 L37.893206,10.3305 L37.893206,7.6205 L50.8630899,7.6205 L50.8630899,10.3305 L45.8642119,10.3305 L45.8642119,23.4295 L42.8918845,23.4295 L42.8918845,10.3305 Z M52.6875238,23.4294 L52.6875238,7.6204 L55.637119,7.6204 L55.637119,23.4294 L52.6875238,23.4294 Z M68.607322,11.43732 C68.0667357,10.53372 66.5807714,9.67552 64.8694798,9.67552 C62.6626673,9.67552 61.6044262,10.60152 61.6044262,11.77592 C61.6044262,13.15352 63.2257863,13.53752 65.1169411,13.76352 C68.4047268,14.16992 71.4667863,15.02812 71.4667863,18.79992 C71.4667863,22.32312 68.3594619,23.83592 64.846947,23.83592 C61.6269589,23.83592 59.149953,22.84232 57.9790482,19.95152 L60.4560542,18.66432 C61.1539708,20.40332 62.9779262,21.17132 64.8918131,21.17132 C66.7610333,21.17132 68.5171911,20.51632 68.5171911,18.79992 C68.5171911,17.30892 66.9636286,16.69932 64.8694798,16.47372 C61.6492923,16.08972 58.6769649,15.23152 58.6769649,11.68552 C58.6769649,8.43332 61.8746196,7.10112 64.7793488,7.07832 C67.2334232,7.07832 69.7782268,7.77872 70.9714649,10.21772 L68.607322,11.43732 Z M23.6910006,23.45432 L13.3831702,5.54732 L4.61614048,20.77752 L18.559319,20.77752 L20.1001196,23.45432 L20.0773875,23.45432 L3.07533988,23.45432 L1.64441131,23.45432 L-7.97619047e-05,23.45432 L11.8453607,2.87612 L13.3857625,0.20012 L14.923572,2.87112 L26.7718042,23.45432 L23.6910006,23.45432 Z" id="Combined-Shape" fill="#F16721"></path>
        <path d="M79.8668714,7.62044 L79.8668714,22.27784 L88.7383893,22.27784 L88.7383893,23.42944 L78.6507018,23.42944 L78.6507018,7.62044 L79.8668714,7.62044 Z M101.37104,18.41584 L97.1378762,8.79484 L92.9043137,18.41584 L101.37104,18.41584 Z M103.577653,23.42944 L101.844028,19.54504 L92.4317244,19.54504 L90.7204327,23.42944 L89.4143315,23.42944 L96.4848256,7.62044 L97.8132601,7.62044 L104.883555,23.42944 L103.577653,23.42944 Z M107.901745,22.2553 L113.148483,22.2553 C115.12957,22.2553 117.674373,21.7809 117.674373,19.2741 C117.651641,16.8121 115.422495,15.9315 113.305814,15.9315 L107.901745,15.9315 L107.901745,22.2553 Z M107.901745,14.7797 L113.305814,14.7797 C115.197367,14.7797 117.178653,14.1925 117.178653,11.9341 C117.178653,9.6305 115.107236,8.6595 113.148483,8.6595 L107.901745,8.6595 L107.901745,14.7797 Z M118.327025,11.9341 C118.327025,13.5601 117.336183,14.8251 115.760287,15.3217 C117.741772,15.8637 118.867611,17.4673 118.867611,19.2965 C118.867611,22.5489 115.850218,23.4295 113.148483,23.4295 L106.685576,23.4295 L106.685576,7.6205 L113.148483,7.6205 C115.805153,7.6205 118.327025,8.9305 118.327025,11.9341 Z M132.468452,10.66946 C131.31988,8.81726 129.473592,8.54646 127.695101,8.52366 C125.848613,8.52366 122.921151,9.20126 122.921151,11.73086 C122.921151,13.74066 125.083098,14.21506 127.739767,14.71206 C130.779693,15.29926 133.932282,15.84106 133.932282,19.25166 C133.90955,22.81986 130.329238,23.67806 127.695101,23.67806 C125.240428,23.67806 122.448363,22.66166 121.232193,20.24506 L122.313365,19.70286 C123.281675,21.62266 125.758681,22.57126 127.695101,22.57126 C129.631321,22.57126 132.716112,22.02906 132.716112,19.22866 C132.738645,16.85746 130.126842,16.33786 127.537371,15.84106 C124.654976,15.27646 121.704982,14.68926 121.704982,11.77586 C121.637982,8.43326 125.105431,7.39466 127.695101,7.39466 C129.94658,7.39466 131.905732,7.75586 133.459493,10.08186 L132.468452,10.66946 Z" id="Combined-Shape" fill="#FFFFFF"></path>
    </g>
</svg>